<?xml version="1.0" encoding="UTF-8"?>
<svg version="1.1" xmlns="http://www.w3.org/2000/svg" width="1024" height="1024">
<path d="M0 0 C337.92 0 675.84 0 1024 0 C1024 337.92 1024 675.84 1024 1024 C686.08 1024 348.16 1024 0 1024 C0 686.08 0 348.16 0 0 Z " fill="#FEFEFE" transform="translate(0,0)"/>
<path d="M0 0 C16.5 0 33 0 50 0 C52.66742099 6.00169723 55.12953593 11.86395356 57.29296875 18.03515625 C57.59578262 18.88945724 57.8985965 19.74375824 58.21058655 20.62394714 C59.20629691 23.43560654 60.1969123 26.24903216 61.1875 29.0625 C61.89843003 31.07335995 62.60970022 33.08409966 63.32128906 35.09472656 C64.80825544 39.29771423 66.29326168 43.50138713 67.77685547 47.70556641 C69.88759176 53.68497144 72.00696478 59.66128251 74.12890625 65.63671875 C81.448866 86.25743344 88.72089802 106.89440591 95.95288086 127.54614258 C102.30423873 145.68212041 108.68704088 163.80356106 115.24414062 181.86621094 C119.41968386 193.37019619 123.54749192 204.89085774 127.6529541 216.42004395 C128.37872659 218.45765001 129.1051968 220.4950077 129.83239746 222.53210449 C130.84329824 225.36447767 131.85170168 228.19772725 132.859375 231.03125 C133.31461548 232.30509552 133.31461548 232.30509552 133.77905273 233.60467529 C134.05789307 234.39062073 134.3367334 235.17656616 134.62402344 235.98632812 C134.86683044 236.66828247 135.10963745 237.35023682 135.35980225 238.05285645 C136.00209417 240.00636937 136.50125147 242.00500587 137 244 C121.16 244 105.32 244 89 244 C78.95621546 216.07002382 78.95621546 216.07002382 74.875 204 C74.58036865 203.14188721 74.2857373 202.28377441 73.98217773 201.3996582 C73.71735596 200.607771 73.45253418 199.81588379 73.1796875 199 C72.95007324 198.319375 72.72045898 197.63875 72.48388672 196.9375 C72 195 72 195 72 191 C40.98 191 9.96 191 -22 191 C-22.99 194.63 -23.98 198.26 -25 202 C-26.07888812 205.33794307 -27.17676541 208.65755491 -28.3203125 211.97265625 C-28.62444061 212.86238632 -28.92856873 213.75211639 -29.24191284 214.66880798 C-29.8772811 216.52544213 -30.51426658 218.3815236 -31.15283203 220.23706055 C-32.13301507 223.08579441 -33.10791576 225.93629568 -34.08203125 228.78710938 C-34.70282152 230.59906234 -35.32390448 232.41091505 -35.9453125 234.22265625 C-36.23697296 235.07465103 -36.52863342 235.92664581 -36.82913208 236.80445862 C-37.099664 237.58965378 -37.37019592 238.37484894 -37.64892578 239.18383789 C-37.88636505 239.87457901 -38.12380432 240.56532013 -38.36843872 241.2769928 C-39 243 -39 243 -40 245 C-55.84 245 -71.68 245 -88 245 C-81.07416334 224.22249003 -81.07416334 224.22249003 -77.71557617 215.00976562 C-77.46794525 214.32954346 -77.22031433 213.64932129 -76.96517944 212.94848633 C-76.70854523 212.24361084 -76.45191101 211.53873535 -76.1875 210.8125 C-75.63038008 209.276778 -75.07350374 207.74096761 -74.5168457 206.20507812 C-73.3169099 202.89498414 -72.11582526 199.58531001 -70.9140625 196.27587891 C-68.9166389 190.77304899 -66.92654904 185.26758032 -64.9375 179.76171875 C-53.51012633 148.13403027 -53.51012633 148.13403027 -48.02734375 133.0859375 C-47.70511841 132.20151474 -47.38289307 131.31709198 -47.05090332 130.40586853 C-46.72908081 129.52258377 -46.4072583 128.63929901 -46.07568359 127.72924805 C-39.11493889 108.62436914 -32.22082738 89.49653255 -25.36880493 70.35238647 C-16.9679662 46.88136224 -8.49024137 23.43887148 0 0 Z " fill="#262B42" transform="translate(351,347)"/>
<path d="M0 0 C52.47 0 104.94 0 159 0 C159 42.45209018 159 42.45209018 152.3125 55.375 C151.61495268 56.85955664 150.92489583 58.34765189 150.24169922 59.83886719 C148.86250932 62.83168519 147.45290385 65.8063583 146.01318359 68.77050781 C143.23295546 74.54137571 140.81582133 80.45403878 138.39233398 86.38113403 C137.09981602 89.52910204 135.77818213 92.66474645 134.45703125 95.80078125 C134.05159592 96.76445869 134.05159592 96.76445869 133.63796997 97.74760437 C129.88736325 106.65463308 126.09699549 115.54483466 122.3125 124.4375 C116.14443898 138.9323255 110.02565183 153.44529526 104 168 C102.71515752 171.1003905 101.42984917 174.20058782 100.14453125 177.30078125 C99.43351071 179.01578707 98.72249187 180.7307936 98.01147461 182.44580078 C97.64972137 183.3183551 97.28796814 184.19090942 96.91525269 185.08990479 C95.81905823 187.73418002 94.72311356 190.37855869 93.62719727 193.02294922 C86.44178523 210.35852153 79.22256509 227.67986818 72 245 C55.83 245 39.66 245 23 245 C26.60696991 235.38141358 30.20658824 225.94671702 34.3125 216.5625 C35.37062996 214.11808158 36.42719784 211.67307115 37.48046875 209.2265625 C37.75947021 208.57854172 38.03847168 207.93052094 38.32592773 207.26286316 C42.00652754 198.68824981 45.56078472 190.06095868 49.125 181.4375 C50.58689582 177.90220149 52.0491347 174.36704509 53.51171875 170.83203125 C53.88051147 169.94065964 54.2493042 169.04928802 54.62927246 168.13090515 C58.70580224 158.28463126 62.81927254 148.45389145 66.9375 138.625 C67.30798462 137.74059235 67.67846924 136.85618469 68.06018066 135.94497681 C70.32220905 130.54536942 72.58515303 125.14614619 74.84844971 119.74707031 C77.98174056 112.27247685 81.11408827 104.79748892 84.24514771 97.32196045 C85.31646963 94.76471214 86.38854567 92.20778108 87.46069336 89.65087891 C93.68736228 74.78617158 99.8377324 59.89214669 106 45 C53.53 44.505 53.53 44.505 0 44 C0 29.48 0 14.96 0 0 Z " fill="#262B42" transform="translate(582,347)"/>
<path d="M0 0 C14.52 0 29.04 0 44 0 C44.067855 25.78316161 44.12306199 51.56625034 44.15543652 77.34947872 C44.17087154 89.3224553 44.19189642 101.29537225 44.22631836 113.26831055 C44.25632405 123.71017565 44.27559942 134.15199754 44.28226548 144.59390455 C44.28615888 150.11712565 44.29523806 155.64022317 44.31719017 161.16340446 C44.33773219 166.3746087 44.34379842 171.58563984 44.33932304 176.79688072 C44.34014039 178.69740493 44.34599952 180.59793565 44.35761642 182.49842453 C44.49458961 206.08750447 41.03799805 228.05339476 24.5625 246.1875 C11.18199884 258.97738543 -6.00991948 262.50777722 -23.92480469 262.42236328 C-37.00894066 262.11083623 -49.95689911 259.48854039 -61 252 C-62.08938469 248.73184592 -61.96751261 248.13991799 -60.9519043 245.01928711 C-60.69801437 244.22513901 -60.44412445 243.43099091 -60.18254089 242.61277771 C-59.89929459 241.7595845 -59.61604828 240.9063913 -59.32421875 240.02734375 C-59.03899857 239.14849014 -58.75377838 238.26963654 -58.45991516 237.364151 C-57.85459876 235.50593227 -57.24487517 233.64914429 -56.63110352 231.79370117 C-55.69121517 228.94874547 -54.7674457 226.09892651 -53.84570312 223.24804688 C-53.25616153 221.44500055 -52.66569762 219.64225549 -52.07421875 217.83984375 C-51.79704514 216.98462631 -51.51987152 216.12940887 -51.23429871 215.24827576 C-50.9709523 214.45727982 -50.7076059 213.66628387 -50.4362793 212.85131836 C-50.20676071 212.15421249 -49.97724213 211.45710663 -49.74076843 210.73887634 C-49 209 -49 209 -47 207 C-46.34773438 207.40992188 -45.69546875 207.81984375 -45.0234375 208.2421875 C-44.14945312 208.78101563 -43.27546875 209.31984375 -42.375 209.875 C-41.51648438 210.40867187 -40.65796875 210.94234375 -39.7734375 211.4921875 C-31.51867848 215.97998606 -21.44074847 216.4834377 -12.3203125 214.3828125 C-8.6964846 212.83755758 -6.59587896 210.90295647 -4.625 207.5 C-0.1576995 196.24107134 -0.69471135 184.00275569 -0.68115234 172.10449219 C-0.67183832 170.22096839 -0.66166749 168.33744867 -0.65071106 166.45393372 C-0.6235631 161.37423641 -0.60830705 156.2945666 -0.59528303 151.21481609 C-0.57958553 145.89368752 -0.55281661 140.57261455 -0.5272522 135.25152588 C-0.48058113 125.19027023 -0.44378072 115.12900399 -0.41057932 105.06769586 C-0.37227519 93.60689979 -0.32288689 82.14615973 -0.27259517 70.68541098 C-0.169449 47.12364364 -0.08159547 23.5618525 0 0 Z " fill="#7B5AEC" transform="translate(511,417)"/>
<path d="M0 0 C2.21763637 0.00097073 4.43179025 -0.04062808 6.64892578 -0.08496094 C8.06949153 -0.09016998 9.49006923 -0.0928561 10.91064453 -0.09277344 C12.83626221 -0.1034082 12.83626221 -0.1034082 14.80078125 -0.11425781 C19.3308153 0.66967886 21.17287777 2.22775151 24.35595703 5.50097656 C26.22363281 8.28979492 26.22363281 8.28979492 27.80126953 11.34082031 C28.69422729 13.04069092 28.69422729 13.04069092 29.60522461 14.77490234 C30.2305582 15.99604795 30.85580002 17.21724055 31.48095703 18.43847656 C32.14575551 19.71251488 32.81203614 20.9857808 33.47973633 22.25830078 C34.82150836 24.81679993 36.15805233 27.37792141 37.49121094 29.94091797 C39.97900941 34.70852513 42.57084446 39.41754738 45.16845703 44.12597656 C51.28040921 55.26359564 57.20339224 66.50106618 63.12670898 77.73974609 C63.49875961 78.44466187 63.87081024 79.14957764 64.25413513 79.87585449 C64.97803671 81.24870502 65.70021503 82.62246579 66.42054749 83.99719238 C68.31147097 87.59172812 70.29689539 91.09365921 72.39111328 94.57519531 C74.49011616 98.34351225 75.03749945 101.14638877 74.35595703 105.50097656 C73.06298828 108.17675781 73.06298828 108.17675781 71.16845703 110.81347656 C70.07210937 112.36421875 70.07210937 112.36421875 68.95361328 113.94628906 C68.08840617 115.13168028 67.22247182 116.31654091 66.35595703 117.50097656 C65.35362165 118.89346253 64.35237533 120.28673287 63.35205078 121.68066406 C61.14815681 124.74538576 58.93452527 127.80278704 56.71533203 130.85644531 C53.55664281 135.21097583 50.44867774 139.5994419 47.35595703 144.00097656 C42.69788062 150.62605257 37.97365848 157.20040988 33.22021484 163.75732422 C29.47266496 168.93406254 25.77863022 174.14593004 22.10595703 179.37597656 C18.53583866 184.44226137 14.96009815 189.50392078 11.29345703 194.50097656 C10.60123047 195.44972656 9.90900391 196.39847656 9.19580078 197.37597656 C7.35595703 199.50097656 7.35595703 199.50097656 4.35595703 200.50097656 C2.07210533 200.58476284 -0.21414397 200.60827571 -2.49951172 200.59863281 C-3.49196648 200.59651039 -3.49196648 200.59651039 -4.50447083 200.59434509 C-6.61354125 200.58875652 -8.72250474 200.57620621 -10.83154297 200.56347656 C-12.26318206 200.55846008 -13.69482282 200.55389743 -15.12646484 200.54980469 C-18.63235885 200.53879087 -22.13819047 200.52153411 -25.64404297 200.50097656 C-27.64941406 196.78417969 -27.64941406 196.78417969 -27.60107422 194.23535156 C-26.20005497 190.23243942 -23.83225093 187.14843645 -21.33154297 183.75097656 C-20.22972353 182.22381816 -19.12816822 180.69646915 -18.02685547 179.16894531 C-17.1804248 178.00371338 -17.1804248 178.00371338 -16.31689453 176.81494141 C-13.74420579 173.25628059 -11.22844197 169.65820207 -8.70654297 166.06347656 C-4.6043676 160.23971493 -0.45118798 154.45501598 3.73095703 148.68847656 C9.001852 141.41917936 14.18525374 134.09234359 19.30297852 126.71435547 C21.97753779 122.86435295 24.67321954 119.04441718 27.49658203 115.30175781 C27.97200439 114.66463867 28.44742676 114.02751953 28.93725586 113.37109375 C29.81245255 112.20458497 30.699563 111.0468764 31.60083008 109.90039062 C33.87929495 106.86800028 33.87929495 106.86800028 34.140625 103.20166016 C33.22261702 100.04204465 31.92076222 97.36116062 30.39892578 94.44238281 C30.10007477 93.86560791 29.80122375 93.28883301 29.49331665 92.69458008 C28.51647055 90.81410813 27.53031715 88.93870995 26.54345703 87.06347656 C25.85851745 85.7516965 25.17386867 84.43976457 24.48950195 83.12768555 C19.05534448 72.73381352 13.47632231 62.42152546 7.81201172 52.15136719 C6.3082622 49.41415981 4.81856923 46.66970514 3.33251953 43.92285156 C-2.02336787 34.0333428 -7.44765752 24.20987922 -13.25561523 14.57641602 C-15.43012268 10.90726488 -17.20636352 7.83486127 -17.64404297 3.50097656 C-12.76234538 -1.12718621 -6.30228021 -0.01949015 0 0 Z " fill="#845AEC" transform="translate(798.64404296875,393.4990234375)"/>
<path d="M0 0 C1.02787125 0.00212242 1.02787125 0.00212242 2.07650757 0.00428772 C4.26719511 0.0098895 6.4577808 0.02244219 8.6484375 0.03515625 C10.13281102 0.04017103 11.61718615 0.04473397 13.1015625 0.04882812 C16.74222065 0.05985948 20.38281914 0.07712526 24.0234375 0.09765625 C27.02148438 5.79833984 27.02148438 5.79833984 27.0390625 8.4921875 C25.53319341 12.35532091 23.21834923 15.45690179 20.7734375 18.78515625 C20.238396 19.52773682 19.70335449 20.27031738 19.15209961 21.03540039 C18.01966888 22.60506561 16.88343046 24.1719899 15.74365234 25.73632812 C14.08542042 28.01257268 12.43739151 30.29579686 10.79296875 32.58203125 C8.09045949 36.3369362 5.37895454 40.08523045 2.66455078 43.83154297 C-0.05304425 47.58410428 -2.76449281 51.34110082 -5.4765625 55.09765625 C-6.55336167 56.58855882 -7.63018463 58.07944421 -8.70703125 59.5703125 C-10.93930222 62.66109755 -13.17099928 65.75229602 -15.40234375 68.84375 C-15.96550293 69.62347168 -16.52866211 70.40319336 -17.10888672 71.20654297 C-18.2150052 72.73955054 -19.31954037 74.27370197 -20.42236328 75.80908203 C-22.77683056 79.08236581 -25.14248327 82.33856124 -27.60546875 85.53125 C-28.34667969 86.50191406 -29.08789062 87.47257812 -29.8515625 88.47265625 C-30.48835938 89.28476562 -31.12515625 90.096875 -31.78125 90.93359375 C-33.17685644 92.95247418 -33.17685644 92.95247418 -32.73608398 94.88549805 C-31.77911554 97.672734 -30.45989504 100.08388379 -29.01953125 102.65625 C-28.40779053 103.75340332 -27.7960498 104.85055664 -27.16577148 105.98095703 C-26.49869346 107.16577925 -25.8314532 108.35051013 -25.1640625 109.53515625 C-24.47764033 110.76138495 -23.791527 111.98778658 -23.10571289 113.21435547 C-18.60827403 121.24633091 -14.05716293 129.2475437 -9.47412109 137.23095703 C-4.92760474 145.15653811 -0.45212612 153.1213234 3.98852539 161.10668945 C6.60178854 165.80232194 9.23004083 170.48076598 11.98046875 175.09765625 C12.41528564 175.83653076 12.85010254 176.57540527 13.2980957 177.33666992 C14.08930074 178.67552315 14.89302139 180.00709461 15.71166992 181.3293457 C16.7421875 183.0859375 16.7421875 183.0859375 18.0234375 186.09765625 C17.3671875 188.453125 17.3671875 188.453125 16.0234375 190.09765625 C11.74839775 192.23517613 6.12803004 191.40678734 1.38476562 191.44775391 C-0.01579451 191.464273 -1.41627175 191.49151045 -2.81640625 191.52978516 C-14.46564314 191.84634051 -14.46564314 191.84634051 -19.4609375 189.37109375 C-23.65369976 184.72501567 -26.47678324 178.80012053 -29.4765625 173.34765625 C-30.18100485 172.08888852 -30.88658951 170.83075943 -31.59326172 169.57324219 C-33.39127641 166.36756019 -35.17566678 163.15453008 -36.95593262 159.93896484 C-39.08866643 156.09132021 -41.23885464 152.25340995 -43.38647461 148.4140625 C-44.52940143 146.37062323 -45.67084205 144.32635199 -46.81079102 142.28125 C-50.92451068 134.91781524 -55.14740744 127.62336013 -59.4140625 120.34765625 C-61.10983511 117.44445061 -62.80404175 114.54034504 -64.49658203 111.63525391 C-65.41661095 110.05775794 -66.33902549 108.48164773 -67.26513672 106.90771484 C-68.30909038 105.12564811 -69.33151533 103.33101395 -70.3515625 101.53515625 C-70.87492188 100.62636719 -71.39828125 99.71757812 -71.9375 98.78125 C-73.32112746 95.207746 -73.50141405 92.91103082 -72.9765625 89.09765625 C-71.49634974 86.31567242 -69.59590516 83.96576136 -67.6015625 81.53515625 C-66.48817079 80.11699326 -65.37621377 78.69770284 -64.265625 77.27734375 C-63.7077832 76.57319336 -63.14994141 75.86904297 -62.57519531 75.14355469 C-60.28459464 72.21208956 -58.12210683 69.19861335 -55.9765625 66.16015625 C-55.5755835 65.59578857 -55.17460449 65.0314209 -54.76147461 64.44995117 C-52.54827711 61.3313348 -50.34677037 58.20448477 -48.14453125 55.078125 C-47.15111172 53.6679194 -46.15762085 52.25776405 -45.1640625 50.84765625 C-44.66318115 50.13673828 -44.1622998 49.42582031 -43.64624023 48.69335938 C-38.37631726 41.22589108 -33.02016987 33.82169631 -27.65722656 26.42089844 C-25.90283748 23.99574351 -24.15391467 21.5667234 -22.40625 19.13671875 C-21.52924438 17.91843384 -21.52924438 17.91843384 -20.63452148 16.67553711 C-19.51849896 15.12495154 -18.40337265 13.5737204 -17.28930664 12.02172852 C-8.60279256 -0.0349707 -8.60279256 -0.0349707 0 0 Z " fill="#865BED" transform="translate(225.9765625,402.90234375)"/>
<path d="M0 0 C2.40400489 3.60600734 3.65270487 7.36933571 5.0546875 11.43359375 C5.35248611 12.28679703 5.65028473 13.14000031 5.95710754 14.01905823 C6.93427022 16.82365267 7.90484165 19.63047567 8.875 22.4375 C9.54912304 24.37829411 10.2233591 26.31904897 10.89770508 28.25976562 C15.75682698 42.27356272 20.50078122 56.32447958 25.14208984 70.41186523 C25.59853584 71.79544215 26.05507554 73.17898816 26.51171875 74.5625 C26.72530029 75.21110489 26.93888184 75.85970978 27.15893555 76.52796936 C28.7580291 81.35288895 30.48936226 86.11857884 32.31176758 90.86328125 C33 93 33 93 33 96 C10.89 96 -11.22 96 -34 96 C-28.96046505 80.88139516 -23.89215101 65.7883883 -18.625 50.75 C-17.97509602 48.89143937 -17.3251937 47.03287817 -16.67529297 45.17431641 C-12.84665236 34.23365875 -9.00449426 23.29773561 -5.125 12.375 C-4.71459473 11.21452148 -4.30418945 10.05404297 -3.88134766 8.85839844 C-3.32519775 7.30040527 -3.32519775 7.30040527 -2.7578125 5.7109375 C-2.4395752 4.81681152 -2.12133789 3.92268555 -1.79345703 3.00146484 C-1 1 -1 1 0 0 Z " fill="#FDFDFD" transform="translate(376,402)"/>
<path d="M0 0 C5.187682 3.28146999 10.21320754 8.62853651 12.328125 14.47265625 C13.97968885 31.5098412 13.97968885 31.5098412 8.80078125 37.97265625 C8.31480469 38.46765625 7.82882812 38.96265625 7.328125 39.47265625 C6.44125 40.38015625 5.554375 41.28765625 4.640625 42.22265625 C-1.14457251 46.59863898 -8.1719134 49.24895257 -15.453125 48.8515625 C-23.94998391 47.40051441 -30.70221768 42.34806637 -36.05859375 35.76953125 C-39.9978717 29.41139841 -39.56875917 21.65559701 -38.671875 14.47265625 C-36.13821624 7.19679548 -29.92695102 2.38740685 -23.484375 -1.40234375 C-15.52911036 -3.74979889 -7.59485775 -3.41768599 0 0 Z " fill="#8159EC" transform="translate(545.671875,346.52734375)"/>
<path d="M0 0 C0.33 0.66 0.66 1.32 1 2 C-2.09677419 8.42293907 -2.09677419 8.42293907 -5.25 10.4375 C-6.11625 10.7159375 -6.11625 10.7159375 -7 11 C-5.5140084 6.40693504 -3.14985318 3.56430755 0 0 Z " fill="#7947EB" transform="translate(163,479)"/>
<path d="M0 0 C1.4370809 -0.05422947 2.87475462 -0.09289723 4.3125 -0.125 C5.11300781 -0.14820313 5.91351563 -0.17140625 6.73828125 -0.1953125 C9 0 9 0 12 2 C8.32589215 3.17571451 4.83070817 3.07366746 1 3 C0.67 2.01 0.34 1.02 0 0 Z " fill="#8562EE" transform="translate(477,676)"/>
</svg>
